<svg width="72" height="100" viewBox="0 0 72 100" fill="none" xmlns="http://www.w3.org/2000/svg">
<rect x="0.5" y="0.5" width="70.4" height="99" rx="7.5" fill="#FFFAFA" stroke="#692A2A"/>
<rect x="6.3418" y="6.30646" width="58.7164" height="87.3871" rx="3.5" stroke="#E02C2D"/>
<mask id="mask0_179_271" style="mask-type:alpha" maskUnits="userSpaceOnUse" x="5" y="5" width="61" height="90">
<rect x="5.8418" y="5.80646" width="59.7164" height="88.3871" rx="4" fill="#992929"/>
</mask>
<g mask="url(#mask0_179_271)">
<line y1="-0.5" x2="102.894" y2="-0.5" transform="matrix(0.70925 -0.704957 0.70925 0.704957 -34.4019 50.222)" stroke="#E02C2D"/>
<line y1="-0.5" x2="102.894" y2="-0.5" transform="matrix(0.70925 0.704957 -0.70925 0.704957 39.4937 -23.2258)" stroke="#E02C2D"/>
<line y1="-0.5" x2="102.894" y2="-0.5" transform="matrix(0.70925 -0.704957 0.70925 0.704957 -15.1245 69.3824)" stroke="#E02C2D"/>
<line y1="-0.5" x2="102.894" y2="-0.5" transform="matrix(0.70925 0.704957 -0.70925 0.704957 20.2163 -4.06549)" stroke="#E02C2D"/>
<line y1="-0.5" x2="102.894" y2="-0.5" transform="matrix(0.70925 -0.704957 0.70925 0.704957 4.15234 88.5427)" stroke="#E02C2D"/>
<line y1="-0.5" x2="102.894" y2="-0.5" transform="matrix(0.70925 0.704957 -0.70925 0.704957 0.939453 15.0948)" stroke="#E02C2D"/>
<line y1="-0.5" x2="102.894" y2="-0.5" transform="matrix(0.70925 -0.704957 0.70925 0.704957 23.4297 107.703)" stroke="#E02C2D"/>
<line y1="-0.5" x2="102.894" y2="-0.5" transform="matrix(0.70925 0.704957 -0.70925 0.704957 -18.3374 34.2551)" stroke="#E02C2D"/>
<line y1="-0.5" x2="102.894" y2="-0.5" transform="matrix(0.70925 -0.704957 0.70925 0.704957 -24.7637 59.8022)" stroke="#E02C2D"/>
<line y1="-0.5" x2="102.894" y2="-0.5" transform="matrix(0.70925 0.704957 -0.70925 0.704957 29.855 -13.6457)" stroke="#E02C2D"/>
<line y1="-0.5" x2="102.894" y2="-0.5" transform="matrix(0.70925 -0.704957 0.70925 0.704957 -5.48633 78.9625)" stroke="#E02C2D"/>
<line y1="-0.5" x2="102.894" y2="-0.5" transform="matrix(0.70925 0.704957 -0.70925 0.704957 10.5776 5.51471)" stroke="#E02C2D"/>
<line y1="-0.5" x2="102.894" y2="-0.5" transform="matrix(0.70925 -0.704957 0.70925 0.704957 13.7905 98.1228)" stroke="#E02C2D"/>
<line y1="-0.5" x2="102.894" y2="-0.5" transform="matrix(0.70925 0.704957 -0.70925 0.704957 -8.69922 24.675)" stroke="#E02C2D"/>
<line y1="-0.5" x2="102.894" y2="-0.5" transform="matrix(0.70925 -0.704957 0.70925 0.704957 33.0679 117.283)" stroke="#E02C2D"/>
<line y1="-0.5" x2="102.894" y2="-0.5" transform="matrix(0.70925 0.704957 -0.70925 0.704957 -27.9761 43.8352)" stroke="#E02C2D"/>
<line y1="-0.5" x2="102.894" y2="-0.5" transform="matrix(0.70925 -0.704957 0.70925 0.704957 -31.189 53.4154)" stroke="#E02C2D"/>
<line y1="-0.5" x2="102.894" y2="-0.5" transform="matrix(0.70925 0.704957 -0.70925 0.704957 36.2803 -20.0323)" stroke="#E02C2D"/>
<line y1="-0.5" x2="102.894" y2="-0.5" transform="matrix(0.70925 -0.704957 0.70925 0.704957 -11.9116 72.5757)" stroke="#E02C2D"/>
<line y1="-0.5" x2="102.894" y2="-0.5" transform="matrix(0.70925 0.704957 -0.70925 0.704957 17.0034 -0.87207)" stroke="#E02C2D"/>
<path d="M5.51709 93.1165L80.1129 18.9724" stroke="#E02C2D"/>
<line y1="-0.5" x2="102.894" y2="-0.5" transform="matrix(0.70925 0.704957 -0.70925 0.704957 -2.27344 18.2882)" stroke="#E02C2D"/>
<line y1="-0.5" x2="102.894" y2="-0.5" transform="matrix(0.70925 -0.704957 0.70925 0.704957 26.6421 110.896)" stroke="#E02C2D"/>
<line y1="-0.5" x2="102.894" y2="-0.5" transform="matrix(0.70925 0.704957 -0.70925 0.704957 -21.5503 37.4486)" stroke="#E02C2D"/>
<line y1="-0.5" x2="102.894" y2="-0.5" transform="matrix(0.70925 -0.704957 0.70925 0.704957 -21.5503 62.9956)" stroke="#E02C2D"/>
<line y1="-0.5" x2="102.894" y2="-0.5" transform="matrix(0.70925 0.704957 -0.70925 0.704957 26.6421 -10.4522)" stroke="#E02C2D"/>
<line y1="-0.5" x2="102.894" y2="-0.5" transform="matrix(0.70925 -0.704957 0.70925 0.704957 -2.27344 82.156)" stroke="#E02C2D"/>
<line y1="-0.5" x2="102.894" y2="-0.5" transform="matrix(0.70925 0.704957 -0.70925 0.704957 7.36523 8.70807)" stroke="#E02C2D"/>
<line y1="-0.5" x2="102.894" y2="-0.5" transform="matrix(0.70925 -0.704957 0.70925 0.704957 17.0034 101.316)" stroke="#E02C2D"/>
<line y1="-0.5" x2="102.894" y2="-0.5" transform="matrix(0.70925 0.704957 -0.70925 0.704957 -11.9116 27.8685)" stroke="#E02C2D"/>
<line y1="-0.5" x2="102.894" y2="-0.5" transform="matrix(0.70925 -0.704957 0.70925 0.704957 36.2803 120.477)" stroke="#E02C2D"/>
<line y1="-0.5" x2="102.894" y2="-0.5" transform="matrix(0.70925 0.704957 -0.70925 0.704957 -31.189 47.0288)" stroke="#E02C2D"/>
<line y1="-0.5" x2="102.894" y2="-0.5" transform="matrix(0.70925 -0.704957 0.70925 0.704957 -27.9761 56.6089)" stroke="#E02C2D"/>
<line y1="-0.5" x2="102.894" y2="-0.5" transform="matrix(0.70925 0.704957 -0.70925 0.704957 33.0679 -16.8391)" stroke="#E02C2D"/>
<line y1="-0.5" x2="102.894" y2="-0.5" transform="matrix(0.70925 -0.704957 0.70925 0.704957 -8.69922 75.7693)" stroke="#E02C2D"/>
<line y1="-0.5" x2="102.894" y2="-0.5" transform="matrix(0.70925 0.704957 -0.70925 0.704957 13.7905 2.32129)" stroke="#E02C2D"/>
<line y1="-0.5" x2="102.894" y2="-0.5" transform="matrix(0.70925 -0.704957 0.70925 0.704957 10.5776 94.9296)" stroke="#E02C2D"/>
<line y1="-0.5" x2="102.894" y2="-0.5" transform="matrix(0.70925 0.704957 -0.70925 0.704957 -5.48633 21.4816)" stroke="#E02C2D"/>
<line y1="-0.5" x2="102.894" y2="-0.5" transform="matrix(0.70925 -0.704957 0.70925 0.704957 29.855 114.09)" stroke="#E02C2D"/>
<line y1="-0.5" x2="102.894" y2="-0.5" transform="matrix(0.70925 0.704957 -0.70925 0.704957 -24.7637 40.642)" stroke="#E02C2D"/>
<line y1="-0.5" x2="102.894" y2="-0.5" transform="matrix(0.70925 -0.704957 0.70925 0.704957 -18.3374 66.1891)" stroke="#E02C2D"/>
<line y1="-0.5" x2="102.894" y2="-0.5" transform="matrix(0.70925 0.704957 -0.70925 0.704957 23.4297 -7.25885)" stroke="#E02C2D"/>
<line y1="-0.5" x2="102.894" y2="-0.5" transform="matrix(0.70925 -0.704957 0.70925 0.704957 0.939453 85.3494)" stroke="#E02C2D"/>
<line y1="-0.5" x2="102.894" y2="-0.5" transform="matrix(0.70925 0.704957 -0.70925 0.704957 4.15234 11.9014)" stroke="#E02C2D"/>
<line y1="-0.5" x2="102.894" y2="-0.5" transform="matrix(0.70925 -0.704957 0.70925 0.704957 20.2163 104.51)" stroke="#E02C2D"/>
<line y1="-0.5" x2="102.894" y2="-0.5" transform="matrix(0.70925 0.704957 -0.70925 0.704957 -15.1245 31.0618)" stroke="#E02C2D"/>
<line y1="-0.5" x2="102.894" y2="-0.5" transform="matrix(0.70925 -0.704957 0.70925 0.704957 39.4937 123.67)" stroke="#E02C2D"/>
<line y1="-0.5" x2="102.894" y2="-0.5" transform="matrix(0.70925 0.704957 -0.70925 0.704957 -34.4019 50.222)" stroke="#E02C2D"/>
</g>
</svg>
